<?xml version="1.0" standalone="no"?>
<svg viewBox="0 0 200 200" xmlns="http://www.w3.org/2000/svg">
  <path fill="#8A3FFC" d="M10.2,-26.7C13,-16,15,-12.9,13.6,-9.7C12.2,-6.5,7.4,-3.3,6.7,-0.4C5.9,2.4,9.2,4.8,15.7,16.8C22.2,28.8,31.9,50.4,29.8,63.6C27.7,76.8,13.9,81.6,2.1,77.9C-9.6,74.2,-19.2,62,-26.1,51.6C-33,41.2,-37.2,32.5,-47.4,24.2C-57.5,15.9,-73.7,8,-70.8,1.7C-67.9,-4.6,-46,-9.3,-37.7,-20.8C-29.4,-32.4,-34.7,-50.8,-30.7,-60.8C-26.7,-70.9,-13.3,-72.4,-4.8,-64.1C3.7,-55.7,7.4,-37.4,10.2,-26.7Z" transform="translate(100 100)" />
</svg>
