<?xml version="1.0" standalone="no"?>
<svg viewBox="0 0 200 200" xmlns="http://www.w3.org/2000/svg">
  <path fill="#08BDBA" d="M35.4,-71.6C38.5,-59.4,28.6,-35.1,21.8,-21.1C15,-7.2,11.4,-3.6,16.8,3.1C22.1,9.8,36.5,19.6,41.5,30.5C46.6,41.5,42.2,53.6,33.8,56.8C25.3,60,12.6,54.3,1.8,51.2C-9,48.1,-18.1,47.6,-21.5,41.4C-24.9,35.2,-22.6,23.5,-33.5,15.6C-44.5,7.8,-68.7,3.9,-66.5,1.3C-64.2,-1.3,-35.4,-2.6,-26.2,-13.4C-16.9,-24.2,-27.2,-44.5,-26.1,-57.8C-24.9,-71.1,-12.5,-77.4,1.8,-80.5C16.1,-83.7,32.2,-83.7,35.4,-71.6Z" transform="translate(100 100)" />
</svg>
