<?xml version="1.0" standalone="no"?>
<svg viewBox="0 0 200 200" xmlns="http://www.w3.org/2000/svg">
  <path fill="#8A3FFC" d="M49.6,-76.6C63.5,-68.2,73.4,-53.1,79.4,-37.1C85.4,-21.1,87.5,-4.1,84.8,11.9C82.1,27.9,74.5,43,64.2,56.6C53.9,70.3,40.9,82.5,25.5,87C10.2,91.5,-7.4,88.3,-24.6,83.4C-41.8,78.5,-58.7,72,-69.3,59.9C-80,47.9,-84.4,30.3,-85.3,13.3C-86.2,-3.8,-83.5,-20.3,-77,-35.4C-70.5,-50.5,-60.2,-64,-46.7,-72.6C-33.3,-81.2,-16.6,-84.7,0.6,-85.6C17.8,-86.6,35.7,-84.9,49.6,-76.6Z" transform="translate(100 100)" />
</svg>
