<?xml version="1.0" standalone="no"?>
<svg viewBox="0 0 200 200" xmlns="http://www.w3.org/2000/svg">
  <path fill="#08BDBA" d="M35.1,-64.5C44.2,-55.5,49.6,-43.6,55.4,-32.4C61.3,-21.1,67.7,-10.6,68,0.2C68.4,11,62.8,22,54.9,29.7C47,37.4,36.9,41.8,27.3,50.3C17.8,58.8,8.9,71.4,-3.9,78.1C-16.7,84.8,-33.3,85.7,-45.2,78.6C-57.1,71.4,-64.2,56.3,-72.1,41.9C-80,27.5,-88.7,13.7,-90.1,-0.8C-91.5,-15.4,-85.7,-30.7,-75.1,-40.5C-64.5,-50.3,-49.2,-54.5,-35.9,-61.1C-22.6,-67.7,-11.3,-76.9,0.8,-78.3C13,-79.8,25.9,-73.6,35.1,-64.5Z" transform="translate(100 100)" />
</svg>
